<mxfile host="app.diagrams.net" modified="2023-06-26T11:47:48.153Z" agent="Mozilla/5.0 (Macintosh; Intel Mac OS X 10_15_7) AppleWebKit/537.36 (KHTML, like Gecko) Chrome/114.0.0.0 Safari/537.36" version="21.2.9" etag="VBrkFJlcX8WlxBxtDgf4" type="github">
  <diagram name="第 1 页" id="BpSS9OUP8u6NC5CNuhwb">
    <mxGraphModel>
      <root>
        <mxCell id="0" />
        <mxCell id="1" parent="0" />
      </root>
    </mxGraphModel>
  </diagram>
</mxfile>
